<?xml version="1.0" standalone="no"?>
<!DOCTYPE svg PUBLIC "-//W3C//DTD SVG 1.1//EN" "http://www.w3.org/Graphics/SVG/1.1/DTD/svg11.dtd" >
<svg xmlns="http://www.w3.org/2000/svg" xmlns:xlink="http://www.w3.org/1999/xlink" version="1.1" viewBox="-10 0 579 1000">
   <path fill="currentColor"
d="M401 312q-4 -51 -24 -80q-40 -58 -133 -58q-69 0 -112 34t-43 87q0 95 156 127q97 19 143 42q45 22 71 62q24 40 24 90q0 88 -65 142q-64 53 -171 53q-228 0 -247 -211l63 -6q18 166 180 166q80 0 129 -39q50 -39 50 -101q0 -79 -83 -109q-40 -14 -91 -24
q-160 -29 -201 -105q-20 -37 -20 -82q0 -80 58 -129q59 -49 154 -49q213 0 224 188z" />
</svg>
