<?xml version="1.0" standalone="no"?>
<!DOCTYPE svg PUBLIC "-//W3C//DTD SVG 1.1//EN" "http://www.w3.org/Graphics/SVG/1.1/DTD/svg11.dtd" >
<svg xmlns="http://www.w3.org/2000/svg" xmlns:xlink="http://www.w3.org/1999/xlink" version="1.1" viewBox="-10 0 631 1000">
   <path fill="currentColor"
d="M260 427q135 0 135 -121q0 -85 -76 -106q-34 -10 -92 -10h-163v237h196zM64 747h208q152 0 152 -134q0 -129 -149 -129h-211v263zM0 134h251q95 0 151 45q55 46 55 123q0 94 -95 148q59 20 86 49q41 46 41 114q0 85 -57 136q-58 51 -153 51h-279v-666z" />
</svg>
