<?xml version="1.0" standalone="no"?>
<!DOCTYPE svg PUBLIC "-//W3C//DTD SVG 1.1//EN" "http://www.w3.org/Graphics/SVG/1.1/DTD/svg11.dtd" >
<svg xmlns="http://www.w3.org/2000/svg" xmlns:xlink="http://www.w3.org/1999/xlink" version="1.1" viewBox="-10 0 734 1000">
   <path fill="currentColor"
d="M471 698q84 -79 84 -231q0 -131 -67 -212q-68 -81 -177 -81q-110 1 -177 81q-68 81 -68 212t68 212q67 81 176 81q63 0 117 -31q-44 -36 -111 -57l15 -47q71 17 137 71zM525 735l18 13q35 26 93 52l-18 43q-58 -21 -135 -74l-2 -2q-71 44 -170 44q-143 0 -227 -93
t-84 -251t84 -252q84 -93 227 -93q142 0 226 93q84 94 84 252q0 170 -99 267z" />
</svg>
